<svg width="24" height="24" viewBox="0 0 24 24" fill="none" xmlns="http://www.w3.org/2000/svg">
<mask id="path-1-inside-1" fill="white">
<path d="M23 12C23 15.0376 21.7688 17.7876 19.7782 19.7782C17.7876 21.7688 15.0376 23 12 23C5.92487 23 1 18.0751 1 12C1 8.96243 2.23122 6.21243 4.22183 4.22183C6.21243 2.23122 8.96243 1 12 1C18.0751 1 23 5.92487 23 12Z"/>
</mask>
<path d="M23 12C23 15.0376 21.7688 17.7876 19.7782 19.7782C17.7876 21.7688 15.0376 23 12 23C5.92487 23 1 18.0751 1 12C1 8.96243 2.23122 6.21243 4.22183 4.22183C6.21243 2.23122 8.96243 1 12 1C18.0751 1 23 5.92487 23 12Z" stroke="#283238" stroke-width="4" mask="url(#path-1-inside-1)"/>
<path fill-rule="evenodd" clip-rule="evenodd" d="M10.4614 10.5643L6.61739 16.971C6.4567 17.2388 6.76118 17.5433 7.02898 17.3826L13.4357 13.5386C13.4779 13.5133 13.5132 13.4779 13.5386 13.4357L17.3826 7.029C17.5433 6.76119 17.2388 6.45672 16.971 6.6174L10.5643 10.4614C10.5221 10.4868 10.4867 10.5221 10.4614 10.5643ZM12.7071 12.7071C12.8881 12.5261 13 12.2761 13 12C13 11.4477 12.5523 11 12 11C11.7238 11 11.4738 11.1119 11.2929 11.2929C11.1119 11.4739 11 11.7239 11 12C11 12.5523 11.4477 13 12 13C12.2761 13 12.5261 12.8881 12.7071 12.7071Z" fill="#7D909B"/>
</svg>
